<svg width="32" height="32" viewBox="0 0 32 32" fill="none" xmlns="http://www.w3.org/2000/svg">
<g clip-path="url(#clip0_1_3)">
<path d="M16 20.5L13.5 22.5L6.5 23.5L2 19V3L8 7H24L30 4L29.5 18.5L26.5 22.5H19L16 20.5Z" fill="white" stroke="black"/>
<path d="M13.0803 24.19L16.0239 19.8549L18.1027 22.5762L18.1243 22.6046L18.1497 22.6295L20.5 24.9371V27.5H18.5H16H11.5V25.0388L12.887 24.3579L13.0059 24.2996L13.0803 24.19Z" fill="#EB1E42" stroke="#EB1E42"/>
<ellipse cx="16" cy="28" rx="5" ry="4" fill="#EB1E42"/>
<path d="M2 17C2 23.5 16 27.5574 16 17" stroke="black" stroke-width="3"/>
<path d="M30 17C30 23.5 16 27.5574 16 17" stroke="black" stroke-width="3"/>
<rect x="6" y="12" width="6" height="4" fill="black"/>
<rect x="20" y="12" width="6" height="4" fill="black"/>
<path d="M2 17V3L8 7H15.5H16" stroke="black" stroke-width="3"/>
<path d="M30 17V3L24 7H16.5H16" stroke="black" stroke-width="3"/>
</g>
<defs>
<clipPath id="clip0_1_3">
<rect width="32" height="32" fill="white"/>
</clipPath>
</defs>
</svg>
